<svg width="318" height="318" viewBox="0 0 318 318" fill="none" xmlns="http://www.w3.org/2000/svg">
<path opacity="0.3" d="M12.2671 293.467C19.0492 293.466 24.5336 298.951 24.5333 305.733C24.533 312.515 19.0482 318 12.2661 318C5.48409 318 -0.000354991 312.516 -3.23787e-05 305.734C0.000290234 298.952 5.48509 293.467 12.2671 293.467ZM0.00354676 232.37C0.00322415 239.152 5.48751 244.636 12.2696 244.636C19.0516 244.636 24.5365 239.151 24.5368 232.369C24.5371 225.587 19.0528 220.102 12.2708 220.103C5.48874 220.103 0.00386937 225.588 0.00354676 232.37ZM0.00703188 159.006C0.00670927 165.788 5.491 171.272 12.273 171.272C19.0551 171.272 24.54 165.787 24.5403 159.005C24.5406 152.223 19.0563 146.738 12.2743 146.739C5.49225 146.739 0.00735449 152.224 0.00703188 159.006ZM0.010517 85.6418C0.0101944 92.4239 5.49448 97.9081 12.2765 97.9078C19.0586 97.9075 24.5434 92.4226 24.5438 85.6406C24.5441 78.8585 19.0598 73.3742 12.2778 73.3746C5.49574 73.3749 0.0108396 78.8598 0.010517 85.6418ZM0.0140335 12.2777C0.0137108 19.0598 5.49797 24.5441 12.28 24.5437C19.0621 24.5434 24.547 19.0585 24.5473 12.2765C24.5476 5.49442 19.0633 0.0101632 12.2813 0.0104846C5.49922 0.010806 0.0143561 5.49567 0.0140335 12.2777ZM73.3639 305.73C73.3636 312.512 78.8481 317.997 85.6301 317.997C92.4122 317.996 97.897 312.511 97.8974 305.729C97.8977 298.947 92.4132 293.463 85.6312 293.463C78.8492 293.463 73.3643 298.948 73.3639 305.73ZM73.3674 232.366C73.3671 239.148 78.8516 244.633 85.6336 244.633C92.4157 244.632 97.9005 239.147 97.9009 232.365C97.9012 225.583 92.4167 220.099 85.6347 220.099C78.8526 220.099 73.3678 225.584 73.3674 232.366ZM73.3711 159.002C73.3708 165.784 78.8551 171.269 85.6371 171.268C92.4191 171.268 97.904 165.783 97.9043 159.001C97.9047 152.219 92.4204 146.735 85.6383 146.735C78.8563 146.735 73.3714 152.22 73.3711 159.002ZM73.3746 85.6383C73.3743 92.4204 78.8585 97.9047 85.6406 97.9043C92.4226 97.904 97.9075 92.4191 97.9078 85.6371C97.9082 78.855 92.4239 73.3708 85.6418 73.3711C78.8598 73.3714 73.3749 78.8563 73.3746 85.6383ZM73.3781 12.2742C73.3777 19.0563 78.862 24.5406 85.6441 24.5402C92.4261 24.5399 97.911 19.055 97.9113 12.273C97.9116 5.49095 92.4274 0.00665952 85.6453 0.00698095C78.8633 0.00730237 73.3784 5.4922 73.3781 12.2742ZM146.728 305.727C146.728 312.509 152.212 317.993 158.994 317.993C165.776 317.993 171.261 312.508 171.261 305.726C171.262 298.944 165.777 293.459 158.995 293.46C152.213 293.46 146.728 298.945 146.728 305.727ZM146.731 232.363C146.731 239.145 152.216 244.629 158.998 244.629C165.78 244.629 171.265 239.144 171.265 232.362C171.265 225.58 165.781 220.095 158.999 220.096C152.217 220.096 146.732 225.581 146.731 232.363ZM146.735 158.999C146.735 165.781 152.219 171.265 159.001 171.265C165.783 171.265 171.268 165.78 171.268 158.998C171.269 152.216 165.784 146.731 159.002 146.732C152.22 146.732 146.735 152.217 146.735 158.999ZM146.739 85.6348C146.738 92.4169 152.223 97.9012 159.005 97.9009C165.787 97.9006 171.272 92.4157 171.272 85.6336C171.272 78.8516 165.788 73.3673 159.006 73.3676C152.224 73.3679 146.739 78.8528 146.739 85.6348ZM146.742 12.2707C146.742 19.0528 152.226 24.5371 159.008 24.5368C165.79 24.5364 171.275 19.0516 171.275 12.2695C171.276 5.48748 165.791 0.00318723 159.009 0.00350865C152.227 0.00383008 146.713 5.51819 146.742 12.2707ZM220.092 305.723C220.092 312.505 225.576 317.99 232.358 317.99C239.14 317.989 244.625 312.504 244.625 305.722C244.626 298.94 239.141 293.456 232.359 293.456C225.577 293.457 220.092 298.941 220.092 305.723ZM220.096 232.359C220.095 239.141 225.58 244.626 232.362 244.626C239.144 244.625 244.629 239.14 244.629 232.358C244.629 225.576 239.145 220.092 232.363 220.092C225.581 220.092 220.096 225.577 220.096 232.359ZM220.099 158.995C220.099 165.777 225.583 171.262 232.365 171.261C239.147 171.261 244.632 165.776 244.632 158.994C244.633 152.212 239.148 146.728 232.366 146.728C225.584 146.728 220.099 152.213 220.099 158.995ZM220.103 85.6312C220.102 92.4132 225.587 97.8977 232.369 97.8974C239.151 97.897 244.636 92.4122 244.636 85.6301C244.636 78.8481 239.152 73.3636 232.37 73.3639C225.588 73.3643 220.073 78.8786 220.103 85.6312ZM220.106 12.2673C220.106 19.0493 225.59 24.5336 232.372 24.5333C239.154 24.533 244.639 19.0481 244.639 12.266C244.64 5.48397 239.155 -0.000316408 232.373 5.01939e-06C225.591 0.000326446 220.077 5.51471 220.106 12.2673ZM293.456 305.72C293.456 312.502 298.94 317.986 305.722 317.986C312.504 317.986 317.989 312.501 317.99 305.719C317.99 298.937 312.505 293.452 305.723 293.453C298.941 293.453 293.456 298.938 293.456 305.72ZM293.46 232.356C293.459 239.138 298.944 244.622 305.726 244.622C312.508 244.622 317.993 239.137 317.993 232.355C317.993 225.573 312.509 220.088 305.727 220.089C298.945 220.089 293.46 225.574 293.46 232.356ZM293.463 158.992C293.463 165.774 298.947 171.258 305.729 171.258C312.511 171.258 317.996 165.773 317.997 158.991C317.997 152.209 312.512 146.724 305.73 146.725C298.948 146.725 293.434 152.239 293.463 158.992ZM293.467 85.6277C293.466 92.4098 298.951 97.8942 305.733 97.8939C312.515 97.8936 318 92.4087 318 85.6266C318 78.8446 312.516 73.3601 305.734 73.3605C298.952 73.3608 293.437 78.8752 293.467 85.6277ZM293.441 12.2932C293.44 19.0752 298.925 24.5597 305.707 24.5593C312.489 24.559 317.974 19.0741 317.974 12.2921C317.974 5.51002 312.49 0.0255766 305.708 0.025898C298.955 -0.00326892 293.441 5.51112 293.441 12.2932Z" fill="#244579"/>
</svg>
