<svg width="185" height="184" viewBox="0 0 185 184" fill="none" xmlns="http://www.w3.org/2000/svg">
<path d="M7.13568 56.3809C5.71346 59.784 4.49441 63.2634 3.47853 66.7936L117.206 180.521C120.736 179.53 124.215 178.311 127.618 176.863L7.13568 56.3809Z" fill="#DA5077" fill-opacity="0.8"/>
<path d="M14.9309 41.6508C13.0261 44.5461 11.3245 47.5429 9.80067 50.5905L133.432 174.222C136.48 172.698 139.477 170.997 142.372 169.092L14.9309 41.6508Z" fill="#DA5077" fill-opacity="0.8"/>
<path d="M24.8622 29.0541C22.5511 31.5176 20.4179 34.0573 18.4369 36.6986L147.326 165.587C149.967 163.606 152.507 161.448 154.97 159.162L24.8622 29.0541Z" fill="#DA5077" fill-opacity="0.8"/>
<path d="M179.149 62.2729C174.756 49.346 167.416 37.2062 157.105 26.8951C146.794 16.584 134.654 9.24436 121.727 4.85071L179.149 62.2729Z" fill="#DA5077" fill-opacity="0.8"/>
<path d="M73.8536 182.248C79.0854 183.289 84.3678 183.873 89.6758 184L-0.000347748 94.3239C0.126636 99.6318 0.710768 104.914 1.75204 110.146L73.8536 182.248Z" fill="#DA5077" fill-opacity="0.8"/>
<path d="M1.82805 73.5996C0.989957 77.7139 0.456562 81.8536 0.177197 86.0187L97.9803 183.822C102.145 183.542 106.311 183.009 110.399 182.171L1.82805 73.5996Z" fill="#DA5077" fill-opacity="0.8"/>
<path d="M50.6135 9.77774C47.5659 11.3015 44.5691 13.0032 41.6739 14.9079L169.09 142.324C170.994 139.428 172.696 136.432 174.22 133.384L50.6135 9.77774Z" fill="#DA5077" fill-opacity="0.8"/>
<path d="M110.17 1.75251C104.939 0.711243 99.6562 0.127109 94.3483 0.000124854L184.024 89.6763C183.897 84.3683 183.313 79.0858 182.272 73.8541L110.17 1.75251Z" fill="#DA5077" fill-opacity="0.8"/>
<path d="M4.89913 121.727C9.29278 134.654 16.6324 146.793 26.9435 157.105C37.2547 167.416 49.3943 174.755 62.3213 179.149L4.89913 121.727Z" fill="#DA5077" fill-opacity="0.8"/>
<path d="M66.818 3.45415C63.2879 4.44462 59.8086 5.66367 56.4054 7.11129L176.913 127.619C178.336 124.216 179.554 120.737 180.57 117.207L66.818 3.45415Z" fill="#DA5077" fill-opacity="0.8"/>
<path d="M86.043 0.152324C81.8779 0.431688 77.7128 0.965083 73.6239 1.80318L182.221 110.4C183.059 106.286 183.592 102.146 183.872 97.9809L86.043 0.152324Z" fill="#DA5077" fill-opacity="0.8"/>
<path d="M36.724 18.413C34.0827 20.3939 31.543 22.5527 29.0795 24.8384L159.162 154.921C161.473 152.457 163.606 149.918 165.587 147.277L36.724 18.413Z" fill="#DA5077" fill-opacity="0.8"/>
</svg>
